<svg width="1920" height="1080" viewBox="0 0 1920 1080" fill="none" xmlns="http://www.w3.org/2000/svg">
<rect width="1920" height="1080" fill="#E2E1E4"/>
<rect x="10" y="10" width="1900" height="1060" rx="36" fill="white"/>
<rect x="30" y="29" width="300" height="1019" rx="26" fill="#F7F7F7"/>
<path d="M351 55C351 40.6406 362.641 29 377 29H1864C1878.36 29 1890 40.6406 1890 55V1022C1890 1036.36 1878.36 1048 1864 1048H377C362.641 1048 351 1036.36 351 1022V55Z" fill="#F7F7F7"/>
<path d="M89.7656 138.012H86.8125L85.0312 128.754L81.5742 138.234H80.4844L77.0273 128.754L75.1758 138.012H72.2344L75.6914 120.832H77.3086L81.0234 132.398L84.6562 120.832H86.2617L89.7656 138.012ZM102.668 132.621H93.7031C93.7578 133.621 94.1016 134.398 94.7344 134.953C95.3672 135.508 96.2188 135.785 97.2891 135.785C98.625 135.785 99.6406 135.438 100.336 134.742L101.473 136.98C100.441 137.816 98.9023 138.234 96.8555 138.234C94.9414 138.234 93.4258 137.676 92.3086 136.559C91.1992 135.434 90.6445 133.867 90.6445 131.859C90.6445 129.883 91.2539 128.281 92.4727 127.055C93.6992 125.828 95.168 125.215 96.8789 125.215C98.6992 125.215 100.16 125.758 101.262 126.844C102.363 127.93 102.914 129.312 102.914 130.992C102.914 131.352 102.832 131.895 102.668 132.621ZM93.8086 130.418H99.9727C99.7695 128.582 98.7539 127.664 96.9258 127.664C95.2539 127.664 94.2148 128.582 93.8086 130.418ZM113.344 138V130.746C113.344 129.676 113.137 128.895 112.723 128.402C112.316 127.91 111.648 127.664 110.719 127.664C110.289 127.664 109.828 127.785 109.336 128.027C108.852 128.27 108.473 128.57 108.199 128.93V138H105.27V125.449H107.379L107.918 126.621C108.715 125.684 109.891 125.215 111.445 125.215C112.938 125.215 114.113 125.664 114.973 126.562C115.84 127.453 116.273 128.699 116.273 130.301V138H113.344ZM127.535 138.012V136.957C127.121 137.309 126.551 137.609 125.824 137.859C125.098 138.109 124.43 138.234 123.82 138.234C120.906 138.234 119.449 136.688 119.449 133.594V125.449H122.379V133.371C122.379 134.98 123.102 135.785 124.547 135.785C125.211 135.785 125.828 135.613 126.398 135.27C126.969 134.926 127.348 134.527 127.535 134.074V125.449H130.465V138.012H127.535Z" fill="#676D7D"/>
<rect x="30" y="186" width="12" height="57" rx="6" fill="#1E293B"/>
<path d="M119.938 215.27C119.938 212.785 120.559 210.707 121.801 209.035C123.051 207.363 124.734 206.527 126.852 206.527C129.234 206.527 131.059 207.297 132.324 208.836C133.598 210.375 134.234 212.52 134.234 215.27C134.234 218.09 133.598 220.301 132.324 221.902C131.051 223.496 129.227 224.293 126.852 224.293C124.688 224.293 122.992 223.449 121.766 221.762C120.547 220.074 119.938 217.91 119.938 215.27ZM122.398 215.27C122.398 217.238 122.785 218.883 123.559 220.203C124.34 221.523 125.438 222.184 126.852 222.184C128.453 222.184 129.672 221.578 130.508 220.367C131.352 219.156 131.773 217.457 131.773 215.27C131.773 210.848 130.133 208.637 126.852 208.637C125.398 208.637 124.293 209.23 123.535 210.418C122.777 211.605 122.398 213.223 122.398 215.27ZM141.277 224.234H140.691L135.312 211.414H137.75L141.066 220.203L144.453 211.414H146.785L141.277 224.234ZM159.09 217.941H150.043C150.043 219.41 150.445 220.539 151.25 221.328C151.961 222.016 152.875 222.359 153.992 222.359C155.266 222.359 156.328 221.988 157.18 221.246L158.117 222.852C157.773 223.195 157.246 223.492 156.535 223.742C155.645 224.07 154.652 224.234 153.559 224.234C151.98 224.234 150.641 223.699 149.539 222.629C148.312 221.449 147.699 219.863 147.699 217.871C147.699 215.801 148.328 214.141 149.586 212.891C150.711 211.773 152.043 211.215 153.582 211.215C155.371 211.215 156.773 211.719 157.789 212.727C158.773 213.695 159.266 214.98 159.266 216.582C159.266 217.074 159.207 217.527 159.09 217.941ZM153.688 213.09C152.695 213.09 151.863 213.41 151.191 214.051C150.551 214.66 150.188 215.418 150.102 216.324H157.051C157.051 215.426 156.77 214.676 156.207 214.074C155.59 213.418 154.75 213.09 153.688 213.09ZM168.441 213.594C167.957 213.258 167.469 213.09 166.977 213.09C166.188 213.09 165.496 213.453 164.902 214.18C164.316 214.906 164.023 215.781 164.023 216.805V224H161.797V211.449H164.023V213.453C164.836 211.961 166.043 211.215 167.645 211.215C168.043 211.215 168.617 211.285 169.367 211.426L168.441 213.594ZM175.473 224.234H174.887L169.508 211.414H171.945L175.262 220.203L178.648 211.414H180.98L175.473 224.234ZM185.012 206.703C185.395 206.703 185.719 206.84 185.984 207.113C186.258 207.379 186.395 207.699 186.395 208.074C186.395 208.457 186.258 208.785 185.984 209.059C185.719 209.324 185.395 209.457 185.012 209.457C184.637 209.457 184.312 209.324 184.039 209.059C183.773 208.785 183.641 208.457 183.641 208.074C183.641 207.691 183.773 207.367 184.039 207.102C184.305 206.836 184.629 206.703 185.012 206.703ZM183.793 224V213.324H182.07V211.449H186.02V224H183.793ZM200.129 217.941H191.082C191.082 219.41 191.484 220.539 192.289 221.328C193 222.016 193.914 222.359 195.031 222.359C196.305 222.359 197.367 221.988 198.219 221.246L199.156 222.852C198.812 223.195 198.285 223.492 197.574 223.742C196.684 224.07 195.691 224.234 194.598 224.234C193.02 224.234 191.68 223.699 190.578 222.629C189.352 221.449 188.738 219.863 188.738 217.871C188.738 215.801 189.367 214.141 190.625 212.891C191.75 211.773 193.082 211.215 194.621 211.215C196.41 211.215 197.812 211.719 198.828 212.727C199.812 213.695 200.305 214.98 200.305 216.582C200.305 217.074 200.246 217.527 200.129 217.941ZM194.727 213.09C193.734 213.09 192.902 213.41 192.23 214.051C191.59 214.66 191.227 215.418 191.141 216.324H198.09C198.09 215.426 197.809 214.676 197.246 214.074C196.629 213.418 195.789 213.09 194.727 213.09ZM214.262 224.234H213.676L209.996 215.691L206.328 224.234H205.742L201.254 211.414H203.633L206.316 219.652L209.656 211.414H210.242L213.688 219.652L216.57 211.414H218.762L214.262 224.234Z" fill="black"/>
<path d="M82.7778 210.667V203H93V210.667H82.7778ZM70 215.778V203H80.2222V215.778H70ZM82.7778 226V213.222H93V226H82.7778ZM70 226V218.333H80.2222V226H70Z" fill="#1E293B"/>
<path d="M123.102 317.391V324H120.758V306.832C122.531 306.754 123.602 306.715 123.969 306.715C128.953 306.715 131.445 308.383 131.445 311.719C131.445 315.578 129.242 317.508 124.836 317.508C124.57 317.508 123.992 317.469 123.102 317.391ZM123.102 308.941V315.281C124.094 315.359 124.617 315.398 124.672 315.398C127.578 315.398 129.031 314.254 129.031 311.965C129.031 309.871 127.48 308.824 124.379 308.824C124.066 308.824 123.641 308.863 123.102 308.941ZM143.41 317.941H134.363C134.363 319.41 134.766 320.539 135.57 321.328C136.281 322.016 137.195 322.359 138.312 322.359C139.586 322.359 140.648 321.988 141.5 321.246L142.438 322.852C142.094 323.195 141.566 323.492 140.855 323.742C139.965 324.07 138.973 324.234 137.879 324.234C136.301 324.234 134.961 323.699 133.859 322.629C132.633 321.449 132.02 319.863 132.02 317.871C132.02 315.801 132.648 314.141 133.906 312.891C135.031 311.773 136.363 311.215 137.902 311.215C139.691 311.215 141.094 311.719 142.109 312.727C143.094 313.695 143.586 314.98 143.586 316.582C143.586 317.074 143.527 317.527 143.41 317.941ZM138.008 313.09C137.016 313.09 136.184 313.41 135.512 314.051C134.871 314.66 134.508 315.418 134.422 316.324H141.371C141.371 315.426 141.09 314.676 140.527 314.074C139.91 313.418 139.07 313.09 138.008 313.09ZM152.762 313.594C152.277 313.258 151.789 313.09 151.297 313.09C150.508 313.09 149.816 313.453 149.223 314.18C148.637 314.906 148.344 315.781 148.344 316.805V324H146.117V311.449H148.344V313.453C149.156 311.961 150.363 311.215 151.965 311.215C152.363 311.215 152.938 311.285 153.688 311.426L152.762 313.594ZM162.055 308.297C161.602 308.141 161.18 308.062 160.789 308.062C160.109 308.062 159.547 308.32 159.102 308.836C158.664 309.352 158.445 310.004 158.445 310.793C158.445 311.004 158.465 311.223 158.504 311.449H161.059V313.324H158.504V324H156.277V313.324H154.449V311.449H156.277C156.277 309.848 156.672 308.59 157.461 307.676C158.25 306.762 159.293 306.305 160.59 306.305C161.238 306.305 161.934 306.422 162.676 306.656L162.055 308.297ZM166.449 306.703C166.832 306.703 167.156 306.84 167.422 307.113C167.695 307.379 167.832 307.699 167.832 308.074C167.832 308.457 167.695 308.785 167.422 309.059C167.156 309.324 166.832 309.457 166.449 309.457C166.074 309.457 165.75 309.324 165.477 309.059C165.211 308.785 165.078 308.457 165.078 308.074C165.078 307.691 165.211 307.367 165.477 307.102C165.742 306.836 166.066 306.703 166.449 306.703ZM165.23 324V313.324H163.508V311.449H167.457V324H165.23ZM171.172 320.449V306.305H173.398V320.074C173.398 320.746 173.59 321.277 173.973 321.668C174.363 322.051 174.871 322.242 175.496 322.242V324.234C172.613 324.234 171.172 322.973 171.172 320.449Z" fill="#A2B0D0"/>
<path d="M89.6473 308.175C89.4838 311.098 87.8002 313.35 85.9643 313.35C84.1284 313.35 82.442 311.099 82.2813 308.175C82.1139 305.134 83.7528 303 85.9643 303C88.1757 303 89.8147 305.189 89.6473 308.175Z" stroke="#A2B0D0" stroke-linecap="round" stroke-linejoin="round"/>
<path d="M85.9651 317.95C82.3284 317.95 78.8312 320.277 77.9551 324.808C77.8391 325.407 78.1309 326 78.6091 326H93.3216C93.7998 326 94.09 325.407 93.9756 324.808C93.0995 320.204 89.6023 317.95 85.9651 317.95Z" stroke="#A2B0D0" stroke-miterlimit="10"/>
<path d="M78.3755 309.464C78.2449 311.799 76.8845 313.638 75.418 313.638C73.9515 313.638 72.5888 311.8 72.4604 309.464C72.3271 307.036 73.6513 305.3 75.418 305.3C77.1847 305.3 78.5089 307.08 78.3755 309.464Z" stroke="#A2B0D0" stroke-linecap="round" stroke-linejoin="round"/>
<path d="M78.7102 318.094C77.703 317.499 76.5936 317.271 75.4179 317.271C72.5161 317.271 69.7204 319.129 69.0201 322.748C68.928 323.226 69.1613 323.7 69.5429 323.7H75.8085" stroke="#A2B0D0" stroke-miterlimit="10" stroke-linecap="round"/>
<path d="M130.715 400.465L129.93 402.469C129.18 401.922 128 401.648 126.391 401.648C124.883 401.648 123.672 402.297 122.758 403.594C121.852 404.891 121.398 406.562 121.398 408.609C121.398 410.562 121.863 412.148 122.793 413.367C123.73 414.578 124.938 415.184 126.414 415.184C128.023 415.184 129.262 414.613 130.129 413.473L131.418 415.266C130.059 416.617 128.309 417.293 126.168 417.293C123.926 417.293 122.16 416.484 120.871 414.867C119.582 413.25 118.938 411.117 118.938 408.469C118.938 405.906 119.625 403.777 121 402.082C122.375 400.387 124.152 399.539 126.332 399.539C128.199 399.539 129.66 399.848 130.715 400.465ZM133.129 410.695C133.129 408.758 133.648 407.195 134.688 406.008C135.734 404.812 137.109 404.215 138.812 404.215C140.609 404.215 142.004 404.789 142.996 405.938C143.988 407.078 144.484 408.664 144.484 410.695C144.484 412.719 143.977 414.316 142.961 415.488C141.945 416.652 140.562 417.234 138.812 417.234C137.023 417.234 135.629 416.645 134.629 415.465C133.629 414.285 133.129 412.695 133.129 410.695ZM135.473 410.695C135.473 413.844 136.586 415.418 138.812 415.418C139.852 415.418 140.664 414.996 141.25 414.152C141.844 413.309 142.141 412.156 142.141 410.695C142.141 407.586 141.031 406.031 138.812 406.031C137.797 406.031 136.984 406.445 136.375 407.273C135.773 408.102 135.473 409.242 135.473 410.695ZM161.371 417V409.055C161.371 407.078 160.516 406.09 158.805 406.09C158.266 406.09 157.762 406.258 157.293 406.594C156.824 406.922 156.504 407.297 156.332 407.719V417H154.105V408.082C154.105 407.465 153.871 406.98 153.402 406.629C152.941 406.27 152.328 406.09 151.562 406.09C151.117 406.09 150.641 406.262 150.133 406.605C149.633 406.949 149.277 407.328 149.066 407.742V417H146.84V404.449H148.293L149.031 405.902C149.891 404.777 150.965 404.215 152.254 404.215C154.051 404.215 155.309 404.773 156.027 405.891C156.277 405.414 156.742 405.016 157.422 404.695C158.102 404.375 158.801 404.215 159.52 404.215C160.816 404.215 161.82 404.602 162.531 405.375C163.242 406.141 163.598 407.219 163.598 408.609V417H161.371ZM168.988 416.309V421.922H166.762V404.449H168.988V405.48C169.832 404.637 170.852 404.215 172.047 404.215C173.828 404.215 175.215 404.77 176.207 405.879C177.199 406.988 177.695 408.613 177.695 410.754C177.695 412.66 177.195 414.219 176.195 415.43C175.195 416.633 173.75 417.234 171.859 417.234C171.328 417.234 170.758 417.141 170.148 416.953C169.547 416.766 169.16 416.551 168.988 416.309ZM168.988 407.156V414.469C169.129 414.68 169.426 414.883 169.879 415.078C170.332 415.266 170.773 415.359 171.203 415.359C173.969 415.359 175.352 413.797 175.352 410.672C175.352 409.086 175.023 407.926 174.367 407.191C173.711 406.457 172.66 406.09 171.215 406.09C170.902 406.09 170.52 406.199 170.066 406.418C169.613 406.637 169.254 406.883 168.988 407.156ZM179.324 410.695C179.324 408.758 179.844 407.195 180.883 406.008C181.93 404.812 183.305 404.215 185.008 404.215C186.805 404.215 188.199 404.789 189.191 405.938C190.184 407.078 190.68 408.664 190.68 410.695C190.68 412.719 190.172 414.316 189.156 415.488C188.141 416.652 186.758 417.234 185.008 417.234C183.219 417.234 181.824 416.645 180.824 415.465C179.824 414.285 179.324 412.695 179.324 410.695ZM181.668 410.695C181.668 413.844 182.781 415.418 185.008 415.418C186.047 415.418 186.859 414.996 187.445 414.152C188.039 413.309 188.336 412.156 188.336 410.695C188.336 407.586 187.227 406.031 185.008 406.031C183.992 406.031 183.18 406.445 182.57 407.273C181.969 408.102 181.668 409.242 181.668 410.695ZM199.855 406.594C199.371 406.258 198.883 406.09 198.391 406.09C197.602 406.09 196.91 406.453 196.316 407.18C195.73 407.906 195.438 408.781 195.438 409.805V417H193.211V404.449H195.438V406.453C196.25 404.961 197.457 404.215 199.059 404.215C199.457 404.215 200.031 404.285 200.781 404.426L199.855 406.594ZM203.16 406.207H201.707V404.449H203.16V401.824L205.387 400.969V404.449H208.832V406.207H205.387V412.441C205.387 413.496 205.562 414.246 205.914 414.691C206.273 415.137 206.848 415.359 207.637 415.359C208.207 415.359 208.797 415.215 209.406 414.926L209.734 416.883C208.812 417.117 207.801 417.234 206.699 417.234C205.707 417.234 204.867 416.867 204.18 416.133C203.5 415.391 203.16 414.457 203.16 413.332V406.207ZM218.969 415.559C218.078 416.676 216.715 417.234 214.879 417.234C213.895 417.234 213.039 416.879 212.312 416.168C211.594 415.449 211.234 414.559 211.234 413.496C211.234 412.223 211.789 411.148 212.898 410.273C214.016 409.391 215.438 408.949 217.164 408.949C217.633 408.949 218.164 409.051 218.758 409.254C218.758 407.223 217.852 406.207 216.039 406.207C214.648 406.207 213.578 406.582 212.828 407.332L211.891 405.469C212.312 405.125 212.895 404.832 213.637 404.59C214.387 404.34 215.102 404.215 215.781 404.215C217.602 404.215 218.922 404.629 219.742 405.457C220.57 406.285 220.984 407.602 220.984 409.406V413.906C220.984 415.008 221.312 415.742 221.969 416.109V417.223C221.062 417.223 220.383 417.094 219.93 416.836C219.484 416.578 219.164 416.152 218.969 415.559ZM218.758 410.836C218.055 410.68 217.562 410.602 217.281 410.602C216.156 410.602 215.238 410.891 214.527 411.469C213.816 412.047 213.461 412.73 213.461 413.52C213.461 414.824 214.23 415.477 215.77 415.477C216.895 415.477 217.891 414.941 218.758 413.871V410.836ZM239.02 417V409.055C239.02 407.078 238.164 406.09 236.453 406.09C235.914 406.09 235.41 406.258 234.941 406.594C234.473 406.922 234.152 407.297 233.98 407.719V417H231.754V408.082C231.754 407.465 231.52 406.98 231.051 406.629C230.59 406.27 229.977 406.09 229.211 406.09C228.766 406.09 228.289 406.262 227.781 406.605C227.281 406.949 226.926 407.328 226.715 407.742V417H224.488V404.449H225.941L226.68 405.902C227.539 404.777 228.613 404.215 229.902 404.215C231.699 404.215 232.957 404.773 233.676 405.891C233.926 405.414 234.391 405.016 235.07 404.695C235.75 404.375 236.449 404.215 237.168 404.215C238.465 404.215 239.469 404.602 240.18 405.375C240.891 406.141 241.246 407.219 241.246 408.609V417H239.02ZM254.98 410.941H245.934C245.934 412.41 246.336 413.539 247.141 414.328C247.852 415.016 248.766 415.359 249.883 415.359C251.156 415.359 252.219 414.988 253.07 414.246L254.008 415.852C253.664 416.195 253.137 416.492 252.426 416.742C251.535 417.07 250.543 417.234 249.449 417.234C247.871 417.234 246.531 416.699 245.43 415.629C244.203 414.449 243.59 412.863 243.59 410.871C243.59 408.801 244.219 407.141 245.477 405.891C246.602 404.773 247.934 404.215 249.473 404.215C251.262 404.215 252.664 404.719 253.68 405.727C254.664 406.695 255.156 407.98 255.156 409.582C255.156 410.074 255.098 410.527 254.98 410.941ZM249.578 406.09C248.586 406.09 247.754 406.41 247.082 407.051C246.441 407.66 246.078 408.418 245.992 409.324H252.941C252.941 408.426 252.66 407.676 252.098 407.074C251.48 406.418 250.641 406.09 249.578 406.09ZM265.234 417V409.699C265.234 408.363 265.031 407.43 264.625 406.898C264.227 406.359 263.555 406.09 262.609 406.09C262.102 406.09 261.57 406.242 261.016 406.547C260.461 406.852 260.035 407.227 259.738 407.672V417H257.512V404.449H259.035L259.738 406.066C260.473 404.832 261.672 404.215 263.336 404.215C266.086 404.215 267.461 405.887 267.461 409.23V417H265.234ZM271.434 406.207H269.98V404.449H271.434V401.824L273.66 400.969V404.449H277.105V406.207H273.66V412.441C273.66 413.496 273.836 414.246 274.188 414.691C274.547 415.137 275.121 415.359 275.91 415.359C276.48 415.359 277.07 415.215 277.68 414.926L278.008 416.883C277.086 417.117 276.074 417.234 274.973 417.234C273.98 417.234 273.141 416.867 272.453 416.133C271.773 415.391 271.434 414.457 271.434 413.332V406.207ZM279.332 410.695C279.332 408.758 279.852 407.195 280.891 406.008C281.938 404.812 283.312 404.215 285.016 404.215C286.812 404.215 288.207 404.789 289.199 405.938C290.191 407.078 290.688 408.664 290.688 410.695C290.688 412.719 290.18 414.316 289.164 415.488C288.148 416.652 286.766 417.234 285.016 417.234C283.227 417.234 281.832 416.645 280.832 415.465C279.832 414.285 279.332 412.695 279.332 410.695ZM281.676 410.695C281.676 413.844 282.789 415.418 285.016 415.418C286.055 415.418 286.867 414.996 287.453 414.152C288.047 413.309 288.344 412.156 288.344 410.695C288.344 407.586 287.234 406.031 285.016 406.031C284 406.031 283.188 406.445 282.578 407.273C281.977 408.102 281.676 409.242 281.676 410.695Z" fill="#A2B0D0"/>
<path d="M90.1212 420.705C91.5203 420.591 92.5909 419.52 92.7048 418.121C92.8483 416.353 93 413.533 93 409.5C93 405.467 92.8483 402.647 92.7048 400.879C92.5909 399.48 91.5203 398.409 90.1212 398.295C88.3535 398.152 85.5327 398 81.5 398C77.4673 398 74.6465 398.152 72.8788 398.295C71.4797 398.409 70.4091 399.48 70.2952 400.879C70.1517 402.647 70 405.467 70 409.5C70 413.533 70.1517 416.353 70.2952 418.121C70.4091 419.52 71.4797 420.591 72.8788 420.705C74.6465 420.848 77.4673 421 81.5 421C85.5327 421 88.3535 420.848 90.1212 420.705Z" stroke="#A2B0D0" stroke-width="1.5" stroke-linecap="round" stroke-linejoin="round"/>
<path d="M84.388 416.003C84.8915 415.95 85.3573 415.711 85.6945 415.333C87.7617 413.009 89.0886 410.935 89.7523 409.793C90.1001 409.194 90.1926 408.452 89.674 407.993C89.536 407.871 89.3816 407.758 89.2228 407.659C88.5525 407.246 87.8028 407.657 87.3006 408.264C86.4776 409.258 85.166 410.819 84.2241 411.834C84.1366 411.93 84.0166 411.989 83.8876 412.001C83.7585 412.013 83.6298 411.976 83.5264 411.898C82.6886 411.267 81.6448 410.37 80.8114 409.632C79.9779 408.893 78.7222 408.865 77.9232 409.641C76.5558 410.97 75.1446 412.528 73.9672 413.907C73.2181 414.783 73.1294 416.064 73.9924 416.828C74.2208 417.031 74.4631 417.218 74.7174 417.387C75.7344 418.066 77.0016 417.532 77.6439 416.492C78.1954 415.599 78.8804 414.528 79.4976 413.678C79.5405 413.62 79.5947 413.571 79.657 413.534C79.7192 413.498 79.7883 413.474 79.86 413.464C79.9317 413.455 80.0046 413.46 80.0743 413.48C80.1439 413.499 80.2089 413.532 80.2654 413.578C81.1554 414.274 82.0573 414.955 82.9706 415.62C83.3791 415.92 83.8844 416.056 84.388 416.003Z" stroke="#A2B0D0" stroke-width="1.5" stroke-linecap="round" stroke-linejoin="round"/>
<path d="M74.3809 402.381H79.857M74.3809 405.667H77.6666" stroke="#A2B0D0" stroke-width="1.5" stroke-linecap="round" stroke-linejoin="round"/>
<path d="M122.102 495.941V500.711H127.773V502.703H122.102V508.891H129.883V511H119.758V493.832H130.012V495.941H122.102ZM140.09 511L136.668 506.43L133.609 511H131.008L135.566 504.578L131.383 498.449H133.891L136.703 502.762L139.855 498.449H142.316L137.758 504.578L142.75 511H140.09ZM146.699 510.309V515.922H144.473V498.449H146.699V499.48C147.543 498.637 148.562 498.215 149.758 498.215C151.539 498.215 152.926 498.77 153.918 499.879C154.91 500.988 155.406 502.613 155.406 504.754C155.406 506.66 154.906 508.219 153.906 509.43C152.906 510.633 151.461 511.234 149.57 511.234C149.039 511.234 148.469 511.141 147.859 510.953C147.258 510.766 146.871 510.551 146.699 510.309ZM146.699 501.156V508.469C146.84 508.68 147.137 508.883 147.59 509.078C148.043 509.266 148.484 509.359 148.914 509.359C151.68 509.359 153.062 507.797 153.062 504.672C153.062 503.086 152.734 501.926 152.078 501.191C151.422 500.457 150.371 500.09 148.926 500.09C148.613 500.09 148.23 500.199 147.777 500.418C147.324 500.637 146.965 500.883 146.699 501.156ZM168.426 504.941H159.379C159.379 506.41 159.781 507.539 160.586 508.328C161.297 509.016 162.211 509.359 163.328 509.359C164.602 509.359 165.664 508.988 166.516 508.246L167.453 509.852C167.109 510.195 166.582 510.492 165.871 510.742C164.98 511.07 163.988 511.234 162.895 511.234C161.316 511.234 159.977 510.699 158.875 509.629C157.648 508.449 157.035 506.863 157.035 504.871C157.035 502.801 157.664 501.141 158.922 499.891C160.047 498.773 161.379 498.215 162.918 498.215C164.707 498.215 166.109 498.719 167.125 499.727C168.109 500.695 168.602 501.98 168.602 503.582C168.602 504.074 168.543 504.527 168.426 504.941ZM163.023 500.09C162.031 500.09 161.199 500.41 160.527 501.051C159.887 501.66 159.523 502.418 159.438 503.324H166.387C166.387 502.426 166.105 501.676 165.543 501.074C164.926 500.418 164.086 500.09 163.023 500.09ZM177.777 500.594C177.293 500.258 176.805 500.09 176.312 500.09C175.523 500.09 174.832 500.453 174.238 501.18C173.652 501.906 173.359 502.781 173.359 503.805V511H171.133V498.449H173.359V500.453C174.172 498.961 175.379 498.215 176.98 498.215C177.379 498.215 177.953 498.285 178.703 498.426L177.777 500.594ZM182.582 493.703C182.965 493.703 183.289 493.84 183.555 494.113C183.828 494.379 183.965 494.699 183.965 495.074C183.965 495.457 183.828 495.785 183.555 496.059C183.289 496.324 182.965 496.457 182.582 496.457C182.207 496.457 181.883 496.324 181.609 496.059C181.344 495.785 181.211 495.457 181.211 495.074C181.211 494.691 181.344 494.367 181.609 494.102C181.875 493.836 182.199 493.703 182.582 493.703ZM181.363 511V500.324H179.641V498.449H183.59V511H181.363ZM197.699 504.941H188.652C188.652 506.41 189.055 507.539 189.859 508.328C190.57 509.016 191.484 509.359 192.602 509.359C193.875 509.359 194.938 508.988 195.789 508.246L196.727 509.852C196.383 510.195 195.855 510.492 195.145 510.742C194.254 511.07 193.262 511.234 192.168 511.234C190.59 511.234 189.25 510.699 188.148 509.629C186.922 508.449 186.309 506.863 186.309 504.871C186.309 502.801 186.938 501.141 188.195 499.891C189.32 498.773 190.652 498.215 192.191 498.215C193.98 498.215 195.383 498.719 196.398 499.727C197.383 500.695 197.875 501.98 197.875 503.582C197.875 504.074 197.816 504.527 197.699 504.941ZM192.297 500.09C191.305 500.09 190.473 500.41 189.801 501.051C189.16 501.66 188.797 502.418 188.711 503.324H195.66C195.66 502.426 195.379 501.676 194.816 501.074C194.199 500.418 193.359 500.09 192.297 500.09ZM194.09 495.941L192.18 493.727L190.094 495.941H188.078L191.57 491.98H192.824L196.398 495.941H194.09ZM207.953 511V503.699C207.953 502.363 207.75 501.43 207.344 500.898C206.945 500.359 206.273 500.09 205.328 500.09C204.82 500.09 204.289 500.242 203.734 500.547C203.18 500.852 202.754 501.227 202.457 501.672V511H200.23V498.449H201.754L202.457 500.066C203.191 498.832 204.391 498.215 206.055 498.215C208.805 498.215 210.18 499.887 210.18 503.23V511H207.953ZM222.824 499.469L221.723 501.039C221.496 500.812 221.094 500.598 220.516 500.395C219.945 500.191 219.383 500.09 218.828 500.09C217.617 500.09 216.656 500.516 215.945 501.367C215.234 502.211 214.879 503.371 214.879 504.848C214.879 506.316 215.242 507.438 215.969 508.211C216.695 508.977 217.703 509.359 218.992 509.359C219.992 509.359 221 508.973 222.016 508.199L222.895 510.074C221.699 510.848 220.219 511.234 218.453 511.234C216.742 511.234 215.328 510.66 214.211 509.512C213.094 508.363 212.535 506.809 212.535 504.848C212.535 502.848 213.113 501.242 214.27 500.031C215.434 498.82 217.023 498.215 219.039 498.215C219.688 498.215 220.391 498.352 221.148 498.625C221.906 498.898 222.465 499.18 222.824 499.469ZM227.535 493.703C227.918 493.703 228.242 493.84 228.508 494.113C228.781 494.379 228.918 494.699 228.918 495.074C228.918 495.457 228.781 495.785 228.508 496.059C228.242 496.324 227.918 496.457 227.535 496.457C227.16 496.457 226.836 496.324 226.562 496.059C226.297 495.785 226.164 495.457 226.164 495.074C226.164 494.691 226.297 494.367 226.562 494.102C226.828 493.836 227.152 493.703 227.535 493.703ZM226.316 511V500.324H224.594V498.449H228.543V511H226.316ZM239.172 509.559C238.281 510.676 236.918 511.234 235.082 511.234C234.098 511.234 233.242 510.879 232.516 510.168C231.797 509.449 231.438 508.559 231.438 507.496C231.438 506.223 231.992 505.148 233.102 504.273C234.219 503.391 235.641 502.949 237.367 502.949C237.836 502.949 238.367 503.051 238.961 503.254C238.961 501.223 238.055 500.207 236.242 500.207C234.852 500.207 233.781 500.582 233.031 501.332L232.094 499.469C232.516 499.125 233.098 498.832 233.84 498.59C234.59 498.34 235.305 498.215 235.984 498.215C237.805 498.215 239.125 498.629 239.945 499.457C240.773 500.285 241.188 501.602 241.188 503.406V507.906C241.188 509.008 241.516 509.742 242.172 510.109V511.223C241.266 511.223 240.586 511.094 240.133 510.836C239.688 510.578 239.367 510.152 239.172 509.559ZM238.961 504.836C238.258 504.68 237.766 504.602 237.484 504.602C236.359 504.602 235.441 504.891 234.73 505.469C234.02 506.047 233.664 506.73 233.664 507.52C233.664 508.824 234.434 509.477 235.973 509.477C237.098 509.477 238.094 508.941 238.961 507.871V504.836Z" fill="#A2B0D0"/>
<path d="M79.1419 502.589L70.7004 510.957C70.4783 511.177 70.3022 511.438 70.182 511.726C70.0619 512.013 70 512.321 70 512.632C70 512.943 70.0619 513.251 70.182 513.539C70.3022 513.826 70.4783 514.087 70.7004 514.307C71.1482 514.751 71.7555 515 72.3887 515C73.0219 515 73.6292 514.751 74.077 514.307L82.5185 505.936M87.6705 506.368L92.3008 510.958C92.7485 511.402 93 512.004 93 512.632C93 513.26 92.7485 513.862 92.3008 514.306C91.853 514.75 91.2457 514.999 90.6125 514.999C89.9793 514.999 89.372 514.75 88.9242 514.306L81.5107 506.958M75.1814 497.022L72.6466 497.858L70.1153 493.674L71.8036 492L76.0256 494.511L75.1814 497.022ZM75.1814 497.022L78.5604 500.372" stroke="#A2B0D0" stroke-width="1.5" stroke-linecap="round" stroke-linejoin="round"/>
<path d="M79.1416 502.589C78.1339 500.041 78.3309 496.697 80.4084 494.637C82.486 492.578 86.3187 492.127 88.4285 493.383L84.7987 496.981L84.4608 500.663L88.1753 500.329L91.8051 496.73C93.0731 498.823 92.617 502.622 90.5394 504.68C88.4619 506.74 85.0901 506.935 82.5194 505.936" stroke="#A2B0D0" stroke-width="1.5" stroke-linecap="round" stroke-linejoin="round"/>
<path d="M119.168 604V586.832H121.512V604H119.168ZM132.984 604V596.699C132.984 595.363 132.781 594.43 132.375 593.898C131.977 593.359 131.305 593.09 130.359 593.09C129.852 593.09 129.32 593.242 128.766 593.547C128.211 593.852 127.785 594.227 127.488 594.672V604H125.262V591.449H126.785L127.488 593.066C128.223 591.832 129.422 591.215 131.086 591.215C133.836 591.215 135.211 592.887 135.211 596.23V604H132.984ZM137.566 603.25L138.352 601.141C139.594 601.953 140.594 602.359 141.352 602.359C142.727 602.359 143.414 601.781 143.414 600.625C143.414 599.797 142.75 599.086 141.422 598.492C140.398 598.023 139.707 597.668 139.348 597.426C138.996 597.184 138.688 596.91 138.422 596.605C138.164 596.293 137.969 595.965 137.836 595.621C137.711 595.27 137.648 594.895 137.648 594.496C137.648 593.465 138.023 592.66 138.773 592.082C139.523 591.504 140.504 591.215 141.715 591.215C142.629 591.215 143.781 591.504 145.172 592.082L144.539 594.145C143.656 593.441 142.77 593.09 141.879 593.09C141.348 593.09 140.898 593.215 140.531 593.465C140.172 593.715 139.992 594.031 139.992 594.414C139.992 595.219 140.449 595.828 141.363 596.242L142.957 596.969C143.934 597.414 144.645 597.922 145.09 598.492C145.535 599.062 145.758 599.777 145.758 600.637C145.758 601.762 145.363 602.645 144.574 603.285C143.785 603.918 142.691 604.234 141.293 604.234C139.973 604.234 138.73 603.906 137.566 603.25ZM150.41 586.703C150.793 586.703 151.117 586.84 151.383 587.113C151.656 587.379 151.793 587.699 151.793 588.074C151.793 588.457 151.656 588.785 151.383 589.059C151.117 589.324 150.793 589.457 150.41 589.457C150.035 589.457 149.711 589.324 149.438 589.059C149.172 588.785 149.039 588.457 149.039 588.074C149.039 587.691 149.172 587.367 149.438 587.102C149.703 586.836 150.027 586.703 150.41 586.703ZM149.191 604V593.324H147.469V591.449H151.418V604H149.191ZM154.5 607.434L155.707 605.652C157.004 606.52 158.199 606.953 159.293 606.953C160.301 606.953 161.094 606.777 161.672 606.426C162.258 606.082 162.551 605.652 162.551 605.137C162.551 604.121 161.816 603.613 160.348 603.613C160.098 603.613 159.645 603.676 158.988 603.801C158.332 603.926 157.82 603.988 157.453 603.988C155.672 603.988 154.781 603.316 154.781 601.973C154.781 601.559 154.988 601.184 155.402 600.848C155.824 600.512 156.344 600.27 156.961 600.121C155.195 599.293 154.312 597.855 154.312 595.809C154.312 594.496 154.77 593.402 155.684 592.527C156.598 591.652 157.727 591.215 159.07 591.215C160.305 591.215 161.27 591.469 161.965 591.977L163.078 590.641L164.531 592.012L163.195 593.02C163.766 593.762 164.051 594.73 164.051 595.926C164.051 597.191 163.656 598.254 162.867 599.113C162.078 599.973 161.043 600.465 159.762 600.59L157.922 600.777C157.703 600.801 157.41 600.887 157.043 601.035C156.676 601.176 156.492 601.363 156.492 601.598C156.492 601.918 156.875 602.078 157.641 602.078C157.977 602.078 158.5 602.02 159.211 601.902C159.922 601.777 160.449 601.715 160.793 601.715C162.027 601.715 162.988 602.012 163.676 602.605C164.371 603.191 164.719 604.008 164.719 605.055C164.719 606.211 164.199 607.145 163.16 607.855C162.129 608.566 160.82 608.922 159.234 608.922C158.422 608.922 157.566 608.777 156.668 608.488C155.77 608.199 155.047 607.848 154.5 607.434ZM159.223 593.008C158.449 593.008 157.816 593.281 157.324 593.828C156.84 594.375 156.598 595.039 156.598 595.82C156.598 596.695 156.832 597.422 157.301 598C157.777 598.57 158.418 598.855 159.223 598.855C160.012 598.855 160.629 598.578 161.074 598.023C161.52 597.461 161.742 596.727 161.742 595.82C161.742 595.039 161.5 594.375 161.016 593.828C160.539 593.281 159.941 593.008 159.223 593.008ZM174.738 604V596.113C174.738 595.176 174.508 594.438 174.047 593.898C173.586 593.359 172.938 593.09 172.102 593.09C171.562 593.09 171.02 593.25 170.473 593.57C169.934 593.883 169.52 594.25 169.23 594.672V604H167.004V586.305H169.23V592.832C169.527 592.371 170.004 591.988 170.66 591.684C171.324 591.371 172.008 591.215 172.711 591.215C174.039 591.215 175.078 591.652 175.828 592.527C176.586 593.402 176.965 594.598 176.965 596.113V604H174.738ZM180.926 593.207H179.473V591.449H180.926V588.824L183.152 587.969V591.449H186.598V593.207H183.152V599.441C183.152 600.496 183.328 601.246 183.68 601.691C184.039 602.137 184.613 602.359 185.402 602.359C185.973 602.359 186.562 602.215 187.172 601.926L187.5 603.883C186.578 604.117 185.566 604.234 184.465 604.234C183.473 604.234 182.633 603.867 181.945 603.133C181.266 602.391 180.926 601.457 180.926 600.332V593.207ZM188.824 603.25L189.609 601.141C190.852 601.953 191.852 602.359 192.609 602.359C193.984 602.359 194.672 601.781 194.672 600.625C194.672 599.797 194.008 599.086 192.68 598.492C191.656 598.023 190.965 597.668 190.605 597.426C190.254 597.184 189.945 596.91 189.68 596.605C189.422 596.293 189.227 595.965 189.094 595.621C188.969 595.27 188.906 594.895 188.906 594.496C188.906 593.465 189.281 592.66 190.031 592.082C190.781 591.504 191.762 591.215 192.973 591.215C193.887 591.215 195.039 591.504 196.43 592.082L195.797 594.145C194.914 593.441 194.027 593.09 193.137 593.09C192.605 593.09 192.156 593.215 191.789 593.465C191.43 593.715 191.25 594.031 191.25 594.414C191.25 595.219 191.707 595.828 192.621 596.242L194.215 596.969C195.191 597.414 195.902 597.922 196.348 598.492C196.793 599.062 197.016 599.777 197.016 600.637C197.016 601.762 196.621 602.645 195.832 603.285C195.043 603.918 193.949 604.234 192.551 604.234C191.23 604.234 189.988 603.906 188.824 603.25Z" fill="#A2B0D0"/>
<path d="M86.7727 607.179C86.7727 607.396 86.6626 607.605 86.4665 607.759C86.2705 607.913 86.0046 608 85.7273 608H75.2728C74.9956 608 74.7297 607.913 74.5336 607.759C74.3375 607.605 74.2274 607.396 74.2274 607.179C74.2274 606.961 74.3375 606.752 74.5336 606.598C74.7297 606.444 74.9956 606.357 75.2728 606.357H85.7273C86.0046 606.357 86.2705 606.444 86.4665 606.598C86.6626 606.752 86.7727 606.961 86.7727 607.179ZM92 594.037C92.0045 595.407 91.6108 596.758 90.8489 597.99C90.087 599.221 88.9771 600.3 87.6039 601.143C87.3471 601.298 87.1387 601.496 86.9947 601.724C86.8506 601.951 86.7747 602.202 86.7727 602.456V603.072C86.7727 603.508 86.5524 603.925 86.1603 604.234C85.7682 604.542 85.2364 604.715 84.6818 604.715H76.3183C75.7637 604.715 75.2319 604.542 74.8398 604.234C74.4477 603.925 74.2274 603.508 74.2274 603.072V602.456C74.2272 602.205 74.1537 601.957 74.0125 601.732C73.8714 601.506 73.6664 601.31 73.4133 601.156C72.0435 600.318 70.9343 599.246 70.1697 598.022C69.4052 596.797 69.0052 595.452 69.0002 594.088C68.9662 589.195 74 585.12 80.223 585.003C81.7564 584.974 83.2816 585.186 84.709 585.627C86.1363 586.068 87.437 586.729 88.5344 587.571C89.6318 588.412 90.5037 589.418 91.0989 590.529C91.694 591.639 92.0004 592.832 92 594.037ZM89.9091 594.037C89.9094 593.051 89.6587 592.075 89.1717 591.167C88.6847 590.258 87.9713 589.435 87.0733 588.746C86.1754 588.057 85.1112 587.517 83.9432 587.156C82.7753 586.795 81.5273 586.621 80.2727 586.645C75.1761 586.74 71.0636 590.073 71.0911 594.077C71.0958 595.193 71.4235 596.293 72.0493 597.294C72.6751 598.296 73.5825 599.172 74.7031 599.857C75.2068 600.165 75.6142 600.559 75.8942 601.01C76.1741 601.46 76.3192 601.955 76.3183 602.456V603.072H84.6818V602.456C84.6833 601.953 84.8309 601.458 85.1133 601.007C85.3957 600.555 85.8055 600.161 86.3114 599.853C87.4354 599.163 88.3438 598.281 88.9673 597.273C89.5908 596.265 89.913 595.158 89.9091 594.037ZM87.8038 593.078C87.5327 591.889 86.8042 590.793 85.7164 589.939C84.6285 589.084 83.2336 588.512 81.7193 588.299C81.5839 588.281 81.4453 588.285 81.3115 588.309C81.1777 588.333 81.0512 588.377 80.9393 588.44C80.8275 588.502 80.7323 588.582 80.6594 588.673C80.5865 588.765 80.5373 588.866 80.5144 588.973C80.4916 589.079 80.4957 589.188 80.5264 589.293C80.5571 589.398 80.6139 589.498 80.6935 589.586C80.7731 589.673 80.874 589.748 80.9904 589.805C81.1067 589.863 81.2363 589.901 81.3717 589.919C83.5371 590.206 85.3745 591.649 85.7417 593.354C85.783 593.545 85.9093 593.718 86.098 593.844C86.2867 593.969 86.5258 594.037 86.7727 594.037C86.8318 594.037 86.8908 594.033 86.9492 594.026C87.2224 593.989 87.466 593.869 87.6262 593.691C87.7865 593.514 87.8504 593.293 87.8038 593.078Z" fill="#A2B0D0"/>
<path d="M74.8047 691.539V695.559H80.8398V698.148H74.8047V706H71.7578V688.832H83.0664V691.539H74.8047ZM87.8945 688.586C88.3633 688.586 88.7617 688.754 89.0898 689.09C89.4258 689.418 89.5938 689.816 89.5938 690.285C89.5938 690.754 89.4258 691.156 89.0898 691.492C88.7617 691.82 88.3633 691.984 87.8945 691.984C87.4258 691.984 87.0234 691.82 86.6875 691.492C86.3594 691.156 86.1953 690.754 86.1953 690.285C86.1953 689.816 86.3594 689.418 86.6875 689.09C87.0234 688.754 87.4258 688.586 87.8945 688.586ZM86.3828 706V695.852H84.7773V693.449H89.3477V706H86.3828ZM93.2734 688.773L96.2031 688.07V702.18C96.2031 703.727 96.6641 704.648 97.5859 704.945C97.1328 705.805 96.3594 706.234 95.2656 706.234C93.9375 706.234 93.2734 705.312 93.2734 703.469V688.773ZM100.293 695.805H98.8398V693.449H100.293V690.895L103.223 689.816V693.449H106.668V695.805H103.223V701.301C103.223 702.199 103.363 702.836 103.645 703.211C103.926 703.578 104.418 703.762 105.121 703.762C105.824 703.762 106.48 703.57 107.09 703.188V705.883C106.41 706.117 105.441 706.234 104.184 706.234C102.934 706.234 101.973 705.883 101.301 705.18C100.629 704.469 100.293 703.461 100.293 702.156V695.805ZM116.617 696.18C116.094 695.836 115.52 695.664 114.895 695.664C114.215 695.664 113.609 695.973 113.078 696.59C112.555 697.207 112.293 697.961 112.293 698.852V706H109.363V693.449H112.293V694.598C113.113 693.676 114.203 693.215 115.562 693.215C116.562 693.215 117.328 693.367 117.859 693.672L116.617 696.18ZM118.809 699.695C118.809 697.781 119.359 696.223 120.461 695.02C121.57 693.816 123.031 693.215 124.844 693.215C126.75 693.215 128.23 693.793 129.285 694.949C130.34 696.105 130.867 697.688 130.867 699.695C130.867 701.695 130.328 703.285 129.25 704.465C128.18 705.645 126.711 706.234 124.844 706.234C122.938 706.234 121.453 705.641 120.391 704.453C119.336 703.258 118.809 701.672 118.809 699.695ZM121.855 699.695C121.855 702.461 122.852 703.844 124.844 703.844C125.758 703.844 126.48 703.484 127.012 702.766C127.551 702.047 127.82 701.023 127.82 699.695C127.82 696.969 126.828 695.605 124.844 695.605C123.93 695.605 123.203 695.965 122.664 696.684C122.125 697.402 121.855 698.406 121.855 699.695ZM132.449 705.191L133.492 702.859C134.367 703.555 135.355 703.902 136.457 703.902C137.598 703.902 138.168 703.496 138.168 702.684C138.168 702.207 137.996 701.816 137.652 701.512C137.309 701.207 136.641 700.848 135.648 700.434C133.484 699.535 132.402 698.277 132.402 696.66C132.402 695.574 132.816 694.73 133.645 694.129C134.473 693.52 135.531 693.215 136.82 693.215C138.125 693.215 139.352 693.508 140.5 694.094L139.656 696.367C139.016 695.82 138.125 695.547 136.984 695.547C135.961 695.547 135.449 695.953 135.449 696.766C135.449 697.086 135.617 697.375 135.953 697.633C136.289 697.891 137.008 698.238 138.109 698.676C139.211 699.105 140.004 699.629 140.488 700.246C140.973 700.863 141.215 701.609 141.215 702.484C141.215 703.648 140.781 704.566 139.914 705.238C139.055 705.902 137.883 706.234 136.398 706.234C135.562 706.234 134.891 706.164 134.383 706.023C133.883 705.891 133.238 705.613 132.449 705.191Z" fill="#676D7D"/>
</svg>
